<svg width="19" height="19" viewBox="0 0 19 19" fill="none" xmlns="http://www.w3.org/2000/svg">
<path d="M9.91346 9.50011C11.2819 9.50011 12.4499 9.03608 13.4178 8.10841C14.3858 7.18075 14.8698 6.06131 14.8698 4.74995C14.8698 3.43879 14.3858 2.31932 13.4178 1.39144C12.4496 0.463812 11.2816 0 9.91346 0C8.54536 0 7.37712 0.463812 6.40924 1.39144C5.44118 2.31932 4.95715 3.43875 4.95715 4.74995C4.95715 6.06131 5.44118 7.18075 6.40924 8.10841C7.37739 9.03608 8.54531 9.50011 9.91346 9.50011Z" fill="#666666"/>
<path d="M18.9544 14.516C18.9242 14.0997 18.8639 13.6501 18.7737 13.1677C18.6834 12.6852 18.5692 12.238 18.4315 11.8255C18.2938 11.4133 18.1088 11.0112 17.8765 10.6194C17.6442 10.2277 17.3775 9.8938 17.0762 9.61742C16.7748 9.34113 16.407 9.12068 15.9728 8.95578C15.5381 8.79092 15.0583 8.70834 14.5335 8.70834C14.4561 8.70834 14.2754 8.79699 13.9914 8.97433C13.7077 9.15166 13.3871 9.34962 13.03 9.56825C12.673 9.78648 12.2081 9.98457 11.6361 10.1616C11.0639 10.3389 10.4896 10.4276 9.9129 10.4276C9.33642 10.4276 8.76211 10.3389 8.18998 10.1616C7.61788 9.98457 7.15311 9.78648 6.79602 9.56825C6.43898 9.34962 6.11851 9.1517 5.83461 8.97433C5.55057 8.79699 5.36997 8.70834 5.29253 8.70834C4.76768 8.70834 4.28794 8.79092 3.85346 8.95578C3.41889 9.12068 3.05108 9.3413 2.74987 9.61742C2.44875 9.8938 2.18198 10.2277 1.94975 10.6194C1.71753 11.0112 1.53254 11.4134 1.39484 11.8255C1.25718 12.238 1.14313 12.6852 1.0528 13.1677C0.962389 13.6501 0.902174 14.0994 0.872021 14.516C0.841913 14.9327 0.826904 15.3594 0.826904 15.7965C0.826904 16.7859 1.14105 17.5675 1.76911 18.1406C2.3973 18.7136 3.232 19 4.27312 19H15.5537C16.5947 19 17.4294 18.7136 18.0576 18.1406C18.6861 17.5675 19 16.786 19 15.7965C18.9999 15.3594 18.9849 14.9327 18.9544 14.516Z" fill="#666666"/>
</svg>
