<svg width="19" height="19" viewBox="0 0 19 19" fill="none" xmlns="http://www.w3.org/2000/svg">
<path d="M17.8968 17.306L13.4168 12.6029C14.5687 11.2207 15.1998 9.48166 15.1998 7.67124C15.1998 3.44139 11.7904 0 7.5999 0C3.40938 0 0 3.44139 0 7.67124C0 11.9011 3.40938 15.3425 7.5999 15.3425C9.17308 15.3425 10.6722 14.8635 11.954 13.9543L16.468 18.6932C16.6567 18.8909 16.9104 19 17.1824 19C17.4398 19 17.684 18.9009 17.8693 18.7208C18.2632 18.3383 18.2758 17.7039 17.8968 17.306ZM7.5999 2.00119C10.6974 2.00119 13.2172 4.54471 13.2172 7.67124C13.2172 10.7978 10.6974 13.3413 7.5999 13.3413C4.50244 13.3413 1.98258 10.7978 1.98258 7.67124C1.98258 4.54471 4.50244 2.00119 7.5999 2.00119Z" fill="#666666"/>
</svg>
