<svg width="236" height="69" viewBox="0 0 236 69" fill="none" xmlns="http://www.w3.org/2000/svg">
<path d="M35.3794 19.3667C35.5442 19.4875 36.1013 19.3237 36.5473 19.1916C37.4706 18.9193 38.7354 18.5483 39.8244 19.3574C40.4238 19.8037 40.568 19.774 40.8264 19.7201C41.3074 19.6226 41.8285 19.5777 42.9124 20.1225C44.1982 20.7693 44.6921 21.8852 45.0192 22.624C45.1282 22.87 45.293 23.2427 45.3871 23.2976C45.9018 23.2129 46.3809 23.3326 46.7939 23.5618C47.0721 23.2451 47.5502 22.8387 48.1988 22.8017C48.939 22.767 49.6559 23.1986 50.3295 24.1058C50.5064 24.3437 50.8876 24.5347 51.303 24.703C50.6046 23.5535 49.7095 22.4517 48.5979 21.8392C47.2844 21.1163 46.9351 20.7561 46.6544 20.4664C46.3133 20.1161 46.0579 19.8825 45.1414 19.5163C44.8538 19.4015 44.5139 19.2628 44.1418 19.1115C41.5862 18.0718 39.212 17.1292 38.2269 17.0143C37.5633 16.9366 36.7249 16.9727 35.9138 17.0083C35.705 17.0173 35.5041 17.0257 35.3095 17.0321C35.3041 17.0932 35.288 17.155 35.2582 17.2132C35.2505 17.228 34.5016 18.727 35.3794 19.3667Z" fill="#666666"/>
<path d="M51.8772 32.4217C51.7886 31.681 51.5431 31.1533 51.1464 30.8535C50.6765 30.4992 50.1384 30.572 50.1334 30.5707C49.8647 30.6123 49.6136 30.4287 49.5718 30.1614C49.5304 29.8942 49.7147 29.6443 49.9835 29.6032C50.022 29.5967 50.9363 29.4656 51.7427 30.0734C52.3598 30.5404 52.7348 31.2911 52.8559 32.3056C52.9878 33.4072 53.3234 33.865 53.5817 34.0544C53.662 34.1138 53.7364 34.145 53.8036 34.1668C54.0899 33.6665 54.2577 32.9119 53.9336 31.8093C53.6847 30.9641 53.5707 30.3711 53.4786 29.8946C53.384 29.4023 53.3155 29.0475 53.1514 28.7139C53.115 28.6397 53.058 28.485 52.9763 28.2724C52.7805 27.7593 52.4646 26.9323 52.023 26.0258C51.8296 25.9462 51.6348 25.8748 51.5046 25.8268C50.7833 25.5624 49.9648 25.262 49.5374 24.6856C49.2184 24.257 48.731 23.7691 48.2556 23.778C47.9584 23.795 47.7095 24.0101 47.5514 24.1874C47.7448 24.4196 47.9016 24.6749 48.0017 24.9374C48.3931 25.9616 48.0599 26.9619 47.1325 27.5475C46.641 27.8575 46.0169 28.0293 45.3273 28.0293C44.0444 28.0293 42.5309 27.4348 41.2093 26.0242C41.0235 25.8262 41.0345 25.5163 41.2336 25.3325C41.4321 25.1478 41.7444 25.1582 41.9295 25.3566C43.597 27.1356 45.5452 27.3899 46.6047 26.7205C47.3504 26.2509 47.1866 25.56 47.0811 25.2848C46.8561 24.6945 46.2182 24.1447 45.5413 24.257C44.7255 24.3902 44.4023 23.6603 44.1182 23.0169C43.8155 22.3337 43.4396 21.4828 42.4689 20.9949C41.6035 20.5599 41.3105 20.6197 41.0256 20.6777C40.5353 20.7796 40.1196 20.7989 39.2342 20.1395C38.5426 19.6239 37.6706 19.8808 36.8277 20.1287C36.0715 20.3508 35.3561 20.5619 34.7982 20.1544C33.5355 19.2344 34.0184 17.634 34.2692 17.0164C34.2567 17.0149 34.2386 17.0149 34.2269 17.0129C33.6887 16.9387 32.9411 17.0711 32.2173 17.2002C31.6592 17.2997 31.0819 17.4024 30.7671 17.3739C30.6534 17.364 30.5235 17.3487 30.3787 17.3313C29.7185 17.2543 28.7295 17.1409 27.4282 17.2452C28.0784 17.741 28.4019 18.3349 28.5786 18.662C28.5945 18.6916 28.6092 18.7184 28.6214 18.7416C28.7921 18.7956 28.9679 18.7355 29.298 18.6002C29.7087 18.4304 30.2703 18.2003 30.8752 18.5744C31.4042 18.9032 31.5208 19.402 31.614 19.8024C31.7064 20.1987 31.7794 20.5111 32.2005 20.7714C32.5319 20.9749 32.8152 21.2847 33.116 21.6123C33.965 22.5391 34.8433 23.4971 37.0522 22.7648C37.3105 22.6781 37.5889 22.8178 37.675 23.0742C37.7611 23.3306 37.6222 23.6075 37.3637 23.6931C36.7142 23.9091 36.1448 23.9989 35.6439 23.9989C33.971 23.9989 33.0496 22.9937 32.3882 22.2719C32.1352 21.9963 31.8963 21.7354 31.6816 21.6033C30.9129 21.1296 30.7632 20.4903 30.6547 20.024C30.5691 19.6575 30.521 19.5096 30.3537 19.4054C30.2017 19.3113 30.0656 19.3435 29.675 19.5044C29.2659 19.673 28.7058 19.9043 28.0747 19.5704C27.9031 19.4801 27.8226 19.3314 27.7114 19.1257C27.4589 18.6581 26.9871 17.8074 25.6714 17.5056C24.7296 17.711 24.1107 17.9812 23.6799 18.2429C24.3147 18.3835 25.0178 18.661 25.5015 19.2084C26.1716 19.966 25.4329 20.7637 24.9923 21.2403C24.822 21.4238 24.4681 21.8062 24.477 21.936C24.4776 21.936 24.4955 21.975 24.588 22.041C24.9027 22.2636 25.5179 22.0665 26.1343 21.8222C27.1658 21.4128 28.6393 21.472 29.6092 22.5237C29.7436 22.6697 29.8913 22.7787 30.0477 22.8463C31.7935 23.6046 32.3875 24.9347 31.7184 26.5921C31.6556 26.7474 31.6715 26.8038 31.672 26.8043C31.7592 26.9658 32.593 27.0671 32.9934 27.1156C33.7406 27.2067 34.5131 27.3003 35.0617 27.6685C36.3596 28.5395 37.8053 31.8658 37.0053 34.0152C36.5922 35.1278 36.691 35.5168 36.7231 35.5975C36.9026 35.7281 36.9758 35.9677 36.8868 36.1804C36.8082 36.3693 36.6249 36.4821 36.4318 36.4821C36.3684 36.4821 36.3048 36.47 36.2426 36.445C35.9325 36.3168 35.2952 35.7909 36.0808 33.6763C36.6928 32.0322 35.5151 29.1552 34.5096 28.481C34.1572 28.2444 33.4751 28.1617 32.8733 28.0884C31.9957 27.9823 31.1668 27.8822 30.8227 27.3034C30.6432 27.002 30.6363 26.6407 30.8026 26.2289C31.274 25.061 30.9191 24.295 29.651 23.7443C29.3678 23.6211 29.1089 23.4335 28.8814 23.1868C28.2287 22.4792 27.2137 22.4499 26.4984 22.7329C25.6829 23.0565 24.7515 23.3592 24.0167 22.841C23.7041 22.6208 23.5293 22.351 23.4961 22.04C23.4363 21.475 23.8579 21.0197 24.2663 20.5787C24.436 20.3948 24.7894 20.013 24.7809 19.8835C24.1442 19.1609 22.7783 19.0649 22.2714 19.085C21.2459 19.4028 18.495 20.3702 17.4204 21.904C16.3521 22.6185 14.1591 25.8095 14.1367 25.8431C13.9008 26.1943 13.5021 26.9496 13.0795 27.7488C12.6429 28.5753 12.1914 29.4292 11.9435 29.7936C11.4093 30.578 10.7378 32.4441 10.4395 33.3155C10.4787 33.409 10.5142 33.504 10.5465 33.5941C10.7302 34.1029 10.8219 34.2575 10.9502 34.238C11.2768 34.176 11.3559 34.0067 11.4789 33.1057C11.5839 32.334 11.7148 31.3746 12.4391 30.4492C13.9173 28.5589 15.2997 28.4965 16.4625 28.7085C16.4834 28.473 16.4028 27.9858 16.3515 27.6757C16.2709 27.1916 16.1948 26.7345 16.2425 26.3663C16.4188 25.0015 18.1153 23.1255 19.3723 22.9057C19.9111 22.8104 20.3506 23.0137 20.582 23.4596C20.9752 24.2167 21.3815 24.3607 21.4677 24.3835L21.4941 24.3825C24.0107 24.2771 26.6638 24.3553 27.2716 25.7513C27.4505 26.163 27.6624 26.3301 27.9561 26.5614C28.4354 26.9394 29.0329 27.41 29.4272 28.9699C29.7871 30.3936 29.7121 31.4045 29.2025 32.0835C28.8724 32.525 28.3823 32.7417 27.7854 32.7417C27.7784 32.7417 27.7706 32.7417 27.7639 32.7417C27.5021 32.7417 27.284 32.5924 27.2726 32.3297C27.2605 32.0595 27.4716 31.8586 27.7436 31.8477C28.0382 31.8348 28.2637 31.7415 28.4138 31.5414C28.7284 31.1217 28.7495 30.2958 28.4729 29.2031C28.1598 27.9648 27.764 27.6566 27.3451 27.3255C27.017 27.0672 26.6461 26.7766 26.3684 26.1397C26.0896 25.4983 24.4622 25.2354 21.537 25.36L21.4576 25.364C21.4486 25.3651 21.44 25.3603 21.4306 25.3603C21.4228 25.3603 21.4162 25.364 21.4087 25.364C21.3093 25.358 20.414 25.2693 19.7078 23.9097C19.6883 23.8734 19.6754 23.8479 19.5442 23.8702C18.7611 24.0078 17.3531 25.4632 17.2207 26.4913C17.1913 26.7177 17.262 27.1423 17.3244 27.5172C17.4568 28.3124 17.5813 29.0642 17.156 29.4754C17.0131 29.6136 16.7563 29.7611 16.3396 29.6822C15.4778 29.5166 14.4533 29.4729 13.2177 31.051C12.6566 31.7681 12.5495 32.549 12.456 33.2383C12.3435 34.0618 12.2161 34.9961 11.1358 35.2004C11.0502 35.2163 10.9716 35.2237 10.8964 35.2237C10.4383 35.2237 10.1437 34.9456 9.94264 34.6266C9.63293 35.4051 9.28304 36.459 9.30786 37.8363C9.60759 37.8253 10.0019 37.8985 10.3966 38.4201C10.5589 38.6341 10.9398 38.6798 11.3495 38.6798C11.3564 38.6798 11.3639 38.6798 11.3713 38.6798C11.8034 38.6798 12.1739 38.6132 12.3615 38.3516C12.5263 38.1216 12.6906 37.7463 12.8638 37.2969C13.362 36.0079 14.1194 34.0888 16.0707 34.5342C16.3355 34.5954 16.5009 34.8702 16.4396 35.1342C16.3779 35.3973 16.113 35.5678 15.8487 35.5065C14.8117 35.2651 14.3363 36.2636 13.7832 37.6932C13.5866 38.2026 13.4004 38.5924 13.1624 38.9239C12.7882 39.4456 12.14 39.6688 11.3832 39.6688C11.3718 39.6688 11.3603 39.6688 11.3483 39.6688C10.6226 39.6688 9.95897 39.4769 9.6094 39.0157C9.51582 38.8919 9.44214 38.8252 9.38284 38.7956C9.45406 39.3086 9.57648 39.8554 9.77058 40.445C9.89313 40.8182 10.0071 41.17 10.1141 41.5035L10.1146 41.5022C10.4054 41.329 10.9002 41.1909 11.6001 41.5116C11.8471 41.6245 11.9555 41.915 11.8416 42.16C11.7285 42.4056 11.4368 42.513 11.1884 42.4002C10.941 42.2861 10.7494 42.2662 10.6214 42.3408C10.5547 42.3797 10.4969 42.4447 10.4472 42.5222C11.159 44.6689 11.7002 45.8858 12.982 46.2918C13.3898 46.4211 13.7338 46.4595 14.0448 46.4677C14.2829 46.1882 14.9957 45.7002 16.7879 46.5716C17.7093 47.0219 18.7598 46.636 19.8714 46.2292C19.8952 46.2203 19.9197 46.2119 19.9435 46.2036C19.4588 45.6646 18.5196 44.4028 18.9097 43.0388C18.9156 43.0186 18.9295 43.0042 18.9375 42.9854C18.9455 42.9667 18.946 42.9465 18.9564 42.929C19.0126 42.831 19.0913 42.5787 19.1609 42.3559C19.3892 41.6251 19.6478 40.7974 20.3015 40.5824C20.7739 40.4266 21.4137 40.5571 22.1554 40.7082C22.8827 40.8556 23.9834 41.0803 24.1622 40.712C24.3208 40.3836 24.3333 39.5064 24.2797 39.0517C23.9366 38.721 23.5978 38.3584 23.2535 37.9902C22.9326 37.646 22.6041 37.2936 22.2606 36.9575C22.1593 36.8585 22.0675 36.7584 21.9805 36.6581C21.6758 37.7083 20.9923 39.0583 19.2559 39.0583C18.7694 39.0583 18.3105 38.9254 17.8667 38.7973C17.1953 38.6027 16.6162 38.4345 16.0094 38.7058C15.9063 38.7517 15.8407 38.8261 15.7964 38.9473C15.5763 39.5486 16.0118 40.8391 16.3385 41.512C16.4569 41.7551 16.3539 42.0484 16.1095 42.1656C16.0404 42.1987 15.9671 42.2146 15.8948 42.2146C15.7121 42.2146 15.5364 42.1128 15.4513 41.9386C15.3462 41.7226 14.4372 39.7975 14.8703 38.6138C15.0053 38.2446 15.2596 37.9681 15.6061 37.8136C16.542 37.395 17.3927 37.6413 18.1415 37.858C18.5362 37.9722 18.9097 38.0801 19.2556 38.0801C20.5648 38.0801 20.97 36.887 21.2135 35.5986C21.2234 35.5453 21.233 35.4973 21.2414 35.4523C20.8287 34.4175 20.8745 33.3358 20.9218 32.2782C20.9426 31.8251 20.9632 31.3566 20.9502 30.8865C20.9051 29.2331 19.9391 29.2059 19.898 29.2055C19.6263 29.2029 19.4078 29.0134 19.4102 28.7425C19.4127 28.4725 19.6323 28.2875 19.9026 28.2875C19.9041 28.2875 19.9056 28.2875 19.9071 28.2875C20.5841 28.2875 21.879 28.8203 21.9357 30.8895C21.9496 31.3948 21.9278 31.8653 21.9064 32.3353C21.8591 33.3965 21.8193 34.3089 22.167 35.1377C22.1805 35.1585 22.1865 35.1887 22.1969 35.2115C22.3603 35.5769 22.6001 35.9323 22.9526 36.2782C23.3065 36.6251 23.645 36.9795 23.9755 37.3333C24.3336 37.7169 24.6767 38.0839 25.0142 38.4043C25.0285 38.4137 25.0376 38.4289 25.0507 38.4399C25.8351 39.1777 26.5864 39.6523 27.4072 39.4652C29.4672 38.9931 31.7743 38.6857 33.2757 39.9947C33.2801 39.9985 33.2853 39.9987 33.2897 40.0022C34.9882 41.4139 34.6895 43.2407 34.2932 44.009C34.206 44.1782 34.033 44.2753 33.8544 44.2753C33.7787 44.2753 33.7024 44.2579 33.6304 44.2213C33.3889 44.0986 33.2934 43.8052 33.4155 43.565C33.4515 43.4924 34.1621 42.004 32.6579 40.7537C32.6554 40.7517 32.655 40.7487 32.6525 40.747C32.6504 40.7451 32.6475 40.7445 32.6455 40.7426C31.4736 39.6994 29.3493 40.0193 27.6293 40.4138C26.7558 40.6149 25.9983 40.3686 25.289 39.8893C25.272 40.34 25.2078 40.8128 25.0511 41.1363C24.9385 41.3679 24.78 41.5317 24.5925 41.6483C25.1118 43.2199 27.1536 43.525 27.4745 43.5134C27.6596 43.4534 27.8728 43.5029 28.0062 43.6602C28.1826 43.8656 28.1582 44.1744 27.9509 44.35C27.8307 44.4525 27.6388 44.4903 27.4217 44.4903C26.8144 44.4903 26.0068 44.1958 25.9959 44.1912C24.7759 43.741 23.9519 42.9329 23.6338 41.8876C23.0962 41.897 22.4983 41.777 21.9607 41.667C21.4603 41.5664 20.836 41.441 20.6143 41.5119C20.4331 41.5961 20.2026 42.3319 20.1046 42.6465C20.0198 42.9163 19.9448 43.1508 19.8542 43.3345C19.5465 44.5013 20.8647 45.7443 20.8788 45.7569C20.9131 45.788 20.9342 45.8267 20.9577 45.8638C21.3365 45.756 21.7149 45.6792 22.0855 45.672C23.1354 45.654 24.1634 45.9955 25.2721 46.3284C26.7742 46.7809 28.4771 47.5866 30.5004 47.0917C30.5009 47.0917 30.5017 47.0917 30.5021 47.0917C30.7378 47.0917 31.0678 46.9304 31.4722 47.1052C31.7841 47.2386 32.1025 47.3927 32.4395 47.571C33.4569 48.1093 34.6118 48.713 35.9103 48.4832C36.3533 48.406 36.6823 48.4577 37.0644 48.5227C37.8676 48.6583 38.7771 48.8102 40.6473 47.7787C40.9256 47.6252 41.1863 47.4802 41.4362 47.3407C42.065 46.8191 42.1516 46.5473 42.3125 45.535C42.4046 44.9539 42.3026 44.7652 42.1726 44.5268C41.9621 44.1389 41.8023 43.7524 41.9891 42.9413C42.0903 42.5009 42.0124 42.1177 41.7584 41.8007C41.3916 41.3433 40.7623 41.138 40.3007 41.138C40.0286 41.138 39.8085 40.9193 39.8085 40.6486C39.8085 40.3779 40.0286 40.159 40.3007 40.159C41.1515 40.159 42.0263 40.5637 42.5286 41.1905C42.9728 41.7437 43.1175 42.4239 42.9483 43.159C42.8293 43.6767 42.9088 43.8215 43.0389 44.0619C43.2524 44.4549 43.4183 44.848 43.2848 45.6878C43.2485 45.9174 43.211 46.118 43.1708 46.3001C44.1869 45.6023 44.6424 44.9938 44.4616 44.1576C44.3998 43.8707 44.5 43.7268 44.7315 43.4278C44.9605 43.1325 45.2741 42.7278 45.2073 42.1099C45.1715 41.7777 45.1222 41.354 44.9456 40.8685C44.3735 39.9384 43.7483 39.6968 43.3086 39.5284C43.1354 39.4615 42.9856 39.4038 42.8509 39.3166C41.9758 38.7438 41.3246 38.3519 40.7313 38.1546C40.7299 38.154 40.7277 38.154 40.7269 38.1535C40.7178 38.151 40.7107 38.1463 40.7019 38.1425C40.0989 37.9479 39.5533 37.9576 38.8913 38.1922C37.3072 38.7553 35.277 38.0647 33.4584 36.3488C32.6426 35.5784 32.1512 35.5656 31.2595 35.542C31.1075 35.538 30.9481 35.534 30.7785 35.5256C30.5686 35.5146 30.0638 35.6907 29.5958 35.8605C28.5441 36.244 27.2344 36.7202 26.1436 36.2097C25.5502 35.9319 25.1096 35.3958 24.8343 34.6178C24.3027 33.1144 24.2576 31.7469 24.2241 30.7475C24.2001 30.0238 24.1773 29.3395 23.9587 29.2976C23.6913 29.2481 23.515 28.9923 23.5658 28.7265C23.6157 28.4614 23.8698 28.2856 24.1401 28.336C25.1352 28.5216 25.1691 29.5381 25.2081 30.7154C25.241 31.7031 25.2813 32.9318 25.763 34.2927C25.9507 34.8224 26.2122 35.1597 26.5632 35.3242C27.2821 35.6627 28.3763 35.2622 29.2565 34.9414C29.7624 34.7573 30.2073 34.604 30.5918 34.5633C32.3948 32.9341 31.9817 31.809 31.9629 31.7614C31.8643 31.5139 31.9804 31.2285 32.2266 31.1244C32.4736 31.0206 32.7553 31.1269 32.8652 31.3694C32.8945 31.4342 33.4755 32.7886 31.9363 34.5945C32.6293 34.6551 33.303 34.8522 34.1362 35.6386C35.328 36.7646 37.1165 37.7834 38.5598 37.2714C39.2618 37.0225 39.8782 36.9776 40.4781 37.0848C40.5442 36.9653 40.6252 36.8368 40.7175 36.6919C40.9863 36.2712 41.4365 35.5665 41.2856 35.2411C41.1717 34.9956 41.2795 34.7047 41.5267 34.5914C41.7752 34.478 42.0668 34.586 42.1805 34.8311C42.5557 35.6405 41.9741 36.5509 41.5497 37.216C41.5491 37.2165 41.5486 37.2174 41.5483 37.218C42.5423 37.1458 44.564 36.7093 45.1222 34.8931C45.201 34.6347 45.4752 34.4872 45.7365 34.5679C45.9969 34.6467 46.1431 34.9205 46.0637 35.1786C45.5214 36.9434 43.9573 37.7192 42.6491 38.0252C42.8877 38.1714 43.1336 38.3286 43.3925 38.4979C43.4383 38.5281 43.5527 38.5717 43.6638 38.6147C44.1626 38.8064 45.0174 39.1372 45.7601 40.3185C46.2217 40.3015 46.6983 40.2589 47.1278 40.1637C47.902 39.9905 48.3514 39.7863 48.7477 39.606C49.0658 39.461 49.3413 39.3359 49.7523 39.2487C50.7674 39.0322 52.812 37.9511 53.1715 36.3199C53.3204 35.6466 53.2496 35.222 53.1691 34.9453C53.1128 34.9127 53.057 34.8853 53 34.8434C52.3931 34.3997 52.0162 33.585 51.8772 32.4217ZM36.4412 42.9876C36.6479 42.8125 36.9574 42.8366 37.1351 43.041C37.5658 43.5413 38.1778 44.3593 38.2583 45.0491C38.6885 45.0115 39.2729 45.056 39.7647 45.5307C39.9604 45.7191 39.9654 46.0283 39.7762 46.2224C39.6795 46.3219 39.5507 46.3714 39.4223 46.3714C39.2986 46.3714 39.1753 46.3255 39.0797 46.2339C38.8025 45.9661 38.4518 45.9988 38.0525 46.0631C37.8054 46.1043 37.4662 46.1596 37.2607 45.8538C37.1675 45.7162 37.0993 45.4826 37.3025 45.1581C37.3124 44.9869 36.8758 44.2475 36.3865 43.6781C36.2101 43.4724 36.2345 43.1632 36.4412 42.9876ZM50.4206 36.7004C50.4202 36.7004 50.4196 36.7004 50.4192 36.7004C50.1469 36.7004 49.9272 36.3707 49.9285 36.1004C49.9298 35.7352 49.8348 35.605 49.1453 35.4165C48.6266 35.2749 47.9801 35.0717 47.5553 34.4535C46.2316 32.5285 44.2905 32.3165 42.578 32.1419C40.9673 31.9768 39.3018 31.7996 39.3175 29.8096C39.3334 27.84 39.3334 27.8366 37.7428 27.1468C35.7421 26.2798 35.8405 25.3271 35.88 25.1456C35.938 24.8822 36.1981 24.7136 36.4661 24.7714C36.712 24.8244 36.8743 25.0519 36.8512 25.2949C36.8661 25.3518 37.01 25.7576 38.1362 26.2462C40.0488 27.0756 40.3221 27.3561 40.3022 29.8107C40.2941 30.8256 40.8758 30.9702 42.6783 31.1547C44.4118 31.3313 46.7857 31.5743 48.3669 33.874C48.5885 34.1957 48.9669 34.2991 49.4049 34.4184C50.0068 34.5826 50.9163 34.9394 50.9124 36.1038C50.9126 36.3738 50.692 36.7004 50.4206 36.7004Z" fill="#666666"/>
<path d="M30.4629 47.9411L30.46 48.0498C30.4515 48.3309 30.3698 49.8262 29.5822 50.635C29.2632 50.9633 28.8081 51.3043 28.4069 51.6048C28.2495 51.7221 28.0395 51.8799 27.9546 51.9527C27.5115 52.5473 26.7524 52.989 25.7037 53.271C25.1133 55.3335 24.4462 57.4322 24.2829 57.849C23.9656 58.6595 25.5965 58.5696 26.095 58.6145C26.5932 58.6595 27.8618 56.0027 28.6319 54.6969C29.4021 53.3909 30.6705 51.7244 32.1202 50.6439C32.69 50.2186 33.1043 49.6276 33.3991 49.0653C31.9847 48.1416 31.4047 47.8416 30.4629 47.9411Z" fill="#666666"/>
<path d="M27.3545 47.8559C26.5062 47.6922 25.721 47.4595 24.9833 47.2383C23.9339 46.9229 23.0174 46.6515 22.1682 46.6515C22.1457 46.6515 22.1236 46.6515 22.1018 46.6521C21.5419 46.6625 20.896 46.8991 20.212 47.1496C19.423 47.4384 18.5635 47.7527 17.6976 47.7527C17.2491 47.7527 16.7985 47.6685 16.3544 47.4526C15.7257 47.146 15.3353 47.0674 15.0984 47.0616C15.0984 47.9696 15.3374 50.3525 17.8091 51.2299C19.5326 51.8415 21.136 51.6174 21.8312 51.7734C22.4215 51.9064 23.0874 52.411 24.9264 52.411C25.0593 52.411 25.1992 52.3922 25.3451 52.3555C25.5329 52.3081 25.7722 52.2392 26.0193 52.1437C26.4563 51.9745 26.9214 51.7192 27.1901 51.3347C27.3317 51.132 28.3854 50.4573 28.8747 49.9545C29.4368 49.3767 29.4755 48.0716 29.4755 48.0716C28.7214 48.0717 28.019 47.9843 27.3545 47.8559Z" fill="#666666"/>
<path d="M60.5972 24.5161C62.2484 23.841 63.4161 22.2272 63.4161 20.3456C63.4161 18.1708 61.859 16.3513 59.7937 15.9296C58.2032 14.482 55.6475 13.7223 52.2755 13.7223C49.267 13.7223 45.7346 14.308 41.9112 15.3997C39.5659 6.05686 35.5127 0 30.8155 0C30.8155 0 30.8155 0 30.8146 0C27.8564 0 25.1535 2.40477 22.9717 6.5178C22.6891 6.46265 22.3982 6.43231 22.0997 6.43231C19.5988 6.43231 17.5643 8.45539 17.5643 10.9415C17.5643 12.6161 18.4895 14.0777 19.8577 14.8552C19.8105 15.0354 19.7641 15.2173 19.7176 15.4003C15.8942 14.3078 12.3617 13.7226 9.3534 13.7226C5.06976 13.7226 2.09753 14.9426 0.757139 17.25C-1.59113 21.2934 1.65886 27.8097 8.62239 34.5001C1.65957 41.19 -1.59041 47.7072 0.757139 51.7499C2.09825 54.0581 5.0706 55.2779 9.35476 55.2779C12.3625 55.2779 15.895 54.6922 19.7184 53.6006C20.1494 55.3145 20.6367 56.9211 21.1761 58.3968C20.0668 59.2187 19.3435 60.5294 19.3435 62.0084C19.3435 64.4947 21.3781 66.5163 23.8786 66.5163C24.4524 66.5163 24.9996 66.406 25.5049 66.2117C27.1238 68.0088 28.9168 69 30.8151 69C30.816 69 30.816 69 30.816 69C35.5132 69 39.5656 62.9424 41.9127 53.6005C45.7353 54.6921 49.2678 55.2778 52.2754 55.2778C56.5594 55.2778 59.5322 54.0579 60.8731 51.7497C63.1543 47.822 60.1518 41.5598 53.594 35.0714C53.5979 35.1973 53.5521 35.3279 53.4353 35.4438C53.4187 35.4602 53.402 35.4764 53.3854 35.4928C53.3739 35.558 53.3479 35.6255 53.3035 35.6934C53.2807 35.7276 53.2611 35.7629 53.2398 35.7976C53.2416 36.1902 53.126 36.5586 52.9526 36.9051C58.4816 42.5244 61.1595 47.8037 59.3682 50.8862C58.0889 53.088 54.8057 53.5503 52.2755 53.5503C49.3942 53.5503 45.997 52.9826 42.309 51.9234C42.9817 48.8728 43.4794 45.5147 43.7695 41.9341C46.673 39.9407 49.2936 37.884 51.5771 35.8285C51.5867 35.6532 51.6824 35.4855 51.8423 35.3876C52.1472 35.2005 52.4045 34.9474 52.6703 34.6829C52.7836 34.5705 52.9112 34.5241 53.0346 34.5253C53.0255 34.5163 53.017 34.5079 53.0078 34.4995C56.6328 31.0167 59.2519 27.5805 60.5972 24.5161ZM21.0109 51.4113C21.0093 51.4039 21.0077 51.3961 21.006 51.3883C20.9125 51.4572 20.7958 51.5016 20.6694 51.5179C20.1931 51.5788 19.7151 51.6438 19.2507 51.5869C19.2747 51.6994 19.2982 51.8124 19.3228 51.9237C15.6341 52.9835 12.236 53.5516 9.3547 53.5516C6.82459 53.5516 3.54123 53.0889 2.26201 50.8875C0.344191 47.5843 3.55322 41.7594 9.90594 35.6967C12.2238 37.7965 14.8954 39.8988 17.8615 41.9343C17.8619 41.9394 17.8624 41.9442 17.8628 41.9491C18.5737 42.2511 19.2465 42.6115 19.7317 43.1918C19.7315 43.1889 19.7311 43.1859 19.7308 43.183C21.1584 44.1112 22.647 45.0219 24.1901 45.9072C25.7268 46.789 27.27 47.6178 28.8076 48.3886C26.1386 49.5929 23.5175 50.6095 21.0109 51.4113ZM30.8149 67.2747C29.4716 67.274 28.1726 66.5758 26.9609 65.3066C27.8521 64.4829 28.4137 63.3113 28.4137 62.0098C28.4137 60.4938 27.6565 59.1515 26.4995 58.3338C26.4299 58.4188 26.3339 58.4855 26.2224 58.5241C25.6869 58.7084 25.1212 58.5255 24.6517 58.2547C24.3548 58.0837 24.3363 57.7717 24.4659 57.5404C24.2735 57.5156 24.0777 57.5013 23.8786 57.5013C23.4899 57.5013 23.1144 57.555 22.7533 57.6476C22.2578 56.247 21.8045 54.7226 21.4018 53.0938C24.4221 52.1354 27.595 50.8809 30.815 49.3662C34.0351 50.8813 37.2087 52.1373 40.2293 53.0938C38.1249 61.5966 34.6537 67.274 30.8149 67.2747ZM40.6197 51.4113C38.1129 50.6099 35.4911 49.5929 32.8228 48.3884C34.361 47.6176 35.9033 46.79 37.4411 45.9071C38.9847 45.0218 40.4718 44.1111 41.9004 43.1837C41.6075 46.0996 41.1732 48.8645 40.6197 51.4113ZM42.0926 40.9728C40.3415 42.1552 38.495 43.3086 36.5723 44.4119C34.653 45.5131 32.7265 46.5283 30.8157 47.4508C28.9048 46.5283 26.9777 45.5125 25.0592 44.4119C23.1749 43.3304 21.3657 42.2014 19.6462 41.0446C18.7591 40.7378 17.8757 40.128 17.2663 39.3818C15.2133 37.8947 13.3144 36.3758 11.6002 34.8582C11.4968 34.8216 11.4024 34.7463 11.3335 34.6217C11.2881 34.5806 11.241 34.5399 11.1959 34.4995C11.2101 34.4867 11.2248 34.4739 11.2393 34.461C11.095 34.2199 10.9253 33.9864 10.741 33.777C10.3404 33.6343 10.3035 33.0467 10.6304 32.8218C10.6653 32.7295 10.7112 32.6377 10.7628 32.5423C10.4722 32.796 10.1862 33.05 9.90601 33.3036C3.55328 27.2415 0.344256 21.417 2.26285 18.1133C3.54142 15.9115 6.82543 15.4492 9.35418 15.4492C12.2355 15.4492 15.6334 16.0169 19.3227 17.0769C19.0539 18.2958 18.8136 19.5647 18.6027 20.8763C19.164 20.3699 19.8547 20.1281 20.5406 19.8305C20.5498 19.8265 20.5591 19.8242 20.5685 19.8207C20.7063 19.061 20.8532 18.3161 21.0108 17.5903C21.9435 17.8889 22.8929 18.2192 23.8541 18.5761C24.5474 18.1225 25.3508 17.8454 26.1601 17.6137C24.5431 16.9702 22.9515 16.3992 21.4008 15.9075C21.4427 15.7404 21.4841 15.5742 21.5265 15.4095C21.7143 15.433 21.9038 15.4495 22.0992 15.4495C24.6002 15.4495 26.6339 13.427 26.6339 10.9417C26.6339 9.35889 25.8073 7.96566 24.5619 7.16117C26.3755 3.74009 28.5296 1.72726 30.814 1.72726C34.2177 1.72726 37.3321 6.18886 39.461 13.1249C39.468 13.1463 39.4751 13.1677 39.4813 13.189C39.4826 13.1945 39.484 13.2 39.4862 13.205C39.7492 14.0681 39.997 14.9713 40.228 15.907C39.1266 16.2563 38.0034 16.6492 36.8657 17.0766C37.9656 17.0294 39.0297 17.2474 40.0696 17.626C40.1328 17.6488 40.1867 17.6796 40.2328 17.7158C40.3619 17.6734 40.4909 17.6312 40.6196 17.59C41.1729 20.1361 41.6072 22.9017 41.9005 25.8177C41.8538 25.7874 41.8067 25.7575 41.7599 25.7278C41.7579 25.8025 41.7576 25.8771 41.7576 25.9519C41.8932 26.3737 41.9693 26.8145 41.9817 27.2497C41.9819 27.2567 41.9803 27.2634 41.9802 27.2704C42.0116 27.5126 42.0342 27.7554 42.0477 27.9991C42.0626 28.009 42.0774 28.019 42.0923 28.0287C42.2471 30.1276 42.3288 32.2929 42.3288 34.501C42.3287 36.7078 42.2467 38.8738 42.0926 40.9728ZM52.0028 33.0336C51.9684 33.1435 51.8853 33.2416 51.7386 33.3057C51.6323 33.352 51.528 33.4022 51.4247 33.4547C51.1631 33.8788 50.8065 34.2036 50.4047 34.4752C50.4144 34.484 50.4246 34.4926 50.4343 34.5016C48.4962 36.2455 46.3104 37.9972 43.9226 39.7022C44.0177 38.0081 44.0663 36.2722 44.0663 34.5009C44.0663 34.1007 44.0626 33.7033 44.058 33.3075C44.0532 32.9629 44.0469 32.6209 44.0399 32.28C44.0238 31.5968 43.998 30.9218 43.9678 30.2511C43.8003 29.2048 43.7858 28.1377 43.7851 27.078C43.7799 27.0743 43.7748 27.0708 43.7695 27.0671C43.6958 26.1562 43.6085 25.2592 43.5077 24.3788C43.4361 23.7519 43.3591 23.1326 43.2744 22.5224C43.2389 22.2649 43.2024 22.0085 43.1649 21.755C43.1635 21.7467 43.1628 21.7391 43.1613 21.7309C43.1565 21.6976 43.151 21.6646 43.1465 21.6306C42.9085 20.0491 42.6281 18.529 42.308 17.0772C45.9966 16.0173 49.3947 15.4495 52.276 15.4495C53.7933 15.4495 55.5796 15.6192 57.0433 16.2269C55.4565 16.9293 54.3443 18.5101 54.3443 20.3459C54.3443 22.7249 56.2104 24.6749 58.562 24.8378C57.2333 27.3453 54.9749 30.1588 52.0028 33.0336Z" fill="#29ABE2"/>
<path d="M93.2327 33.4773L101.658 14.4409H108.916V15.6649C108.224 15.6865 107.668 15.7726 107.247 15.9226C106.826 16.0731 106.502 16.3252 106.275 16.6795C106.048 17.0338 105.897 17.5225 105.821 18.1451C105.745 18.7682 105.708 19.5624 105.708 20.5287V33.1552C105.708 34.2292 105.751 35.0773 105.838 35.6998C105.924 36.3229 106.091 36.8061 106.34 37.1493C106.588 37.493 106.944 37.7185 107.409 37.8257C107.873 37.9334 108.483 37.9978 109.24 38.019V39.243H98.7412V38.019C99.4971 37.9978 100.107 37.9279 100.572 37.8096C101.036 37.6918 101.398 37.4714 101.658 37.1493C101.917 36.8272 102.089 36.3712 102.176 35.7803C102.262 35.19 102.306 34.3903 102.306 33.3807V18.435H101.982L92.5198 39.5651H91.8069L82.5072 18.435H82.3776V33.1552C82.3776 34.2292 82.4206 35.0773 82.5072 35.6998C82.5933 36.3229 82.7608 36.8061 83.0094 37.1493C83.2575 37.493 83.614 37.7185 84.0787 37.8257C84.543 37.9334 85.1531 37.9978 85.9095 38.019V39.243H76.869V38.019C77.6249 37.9978 78.235 37.9279 78.6998 37.8096C79.1641 37.6918 79.5261 37.4714 79.7853 37.1493C80.0445 36.8272 80.2172 36.3712 80.3038 35.7803C80.3898 35.19 80.4334 34.3903 80.4334 33.3807V20.3032C80.4334 19.4013 80.3954 18.6554 80.32 18.0646C80.244 17.4742 80.0931 17.0072 79.8663 16.6634C79.6395 16.3202 79.3099 16.0786 78.878 15.9387C78.4456 15.7993 77.8841 15.7082 77.1931 15.6649V14.4409H84.9374L93.1031 33.4773H93.2327Z" fill="#29ABE2"/>
<path d="M118.118 34.1215C118.118 34.9589 118.156 35.6303 118.232 36.1346C118.307 36.6394 118.453 37.0365 118.669 37.3264C118.885 37.6163 119.188 37.8151 119.576 37.9223C119.965 38.03 120.484 38.0944 121.132 38.1156V39.2429H111.832V38.1156C112.48 38.0944 113.009 38.0245 113.42 37.9062C113.83 37.7884 114.149 37.5952 114.376 37.3264C114.602 37.0582 114.753 36.6822 114.829 36.199C114.905 35.7159 114.943 35.0989 114.943 34.3469V30.224C114.943 28.9789 114.927 27.9532 114.894 27.1479C114.862 26.3426 114.802 25.79 114.716 25.489C114.608 24.9953 114.359 24.6571 113.971 24.4744C113.582 24.2922 112.847 24.2006 111.767 24.2006V23.0733L118.118 21.8493V34.1215ZM114.392 15.3105C114.392 14.7524 114.586 14.2798 114.975 13.8933C115.364 13.5067 115.839 13.3135 116.401 13.3135C116.962 13.3135 117.438 13.5067 117.827 13.8933C118.215 14.2798 118.41 14.7524 118.41 15.3105C118.41 15.8692 118.215 16.3413 117.827 16.7278C117.438 17.1143 116.962 17.3076 116.401 17.3076C115.839 17.3076 115.364 17.1143 114.975 16.7278C114.586 16.3413 114.392 15.8692 114.392 15.3105Z" fill="#29ABE2"/>
<path d="M128.779 34.1859C128.779 35.0667 128.8 35.7592 128.843 36.2635C128.886 36.7683 129 37.1548 129.184 37.4231C129.367 37.6918 129.637 37.869 129.994 37.9545C130.35 38.0406 130.841 38.105 131.468 38.1478V39.2429H122.978V38.1478C123.583 38.105 124.064 38.0406 124.42 37.9545C124.777 37.869 125.052 37.6968 125.247 37.4392C125.441 37.1815 125.565 36.8166 125.619 36.344C125.673 35.8719 125.7 35.2277 125.7 34.4114V30.1274C125.7 27.5722 125.635 26.0155 125.506 25.4569C125.441 25.178 125.36 24.947 125.263 24.7643C125.166 24.5821 125.02 24.4422 124.825 24.3456C124.631 24.249 124.382 24.1845 124.08 24.1523C123.777 24.1201 123.388 24.104 122.914 24.104V23.0733L128.098 21.8493L128.487 25.0381H128.617C129.437 24.029 130.399 23.2454 131.5 22.6867C132.602 22.1286 133.801 21.8493 135.097 21.8493C136.09 21.8493 136.998 22.0103 137.819 22.3324C138.64 22.6545 139.266 23.0949 139.698 23.6531C140.066 24.1473 140.325 24.786 140.476 25.5696C140.627 26.3537 140.703 27.4328 140.703 28.8067V34.1859C140.703 35.0667 140.73 35.7592 140.784 36.2635C140.838 36.7683 140.951 37.1548 141.124 37.4231C141.297 37.6918 141.562 37.869 141.918 37.9545C142.275 38.0406 142.744 38.105 143.328 38.1478V39.2429H134.935V38.1478C135.54 38.1267 136.021 38.0673 136.377 37.9706C136.734 37.874 137.003 37.6968 137.187 37.4392C137.37 37.1815 137.489 36.8111 137.544 36.3279C137.597 35.8447 137.625 35.2061 137.625 34.4114V30.1596C137.625 28.9356 137.56 27.9049 137.43 27.0674C137.301 26.2299 137.09 25.5535 136.798 25.0381C136.507 24.5227 136.123 24.1523 135.648 23.9269C135.173 23.7014 134.6 23.5886 133.931 23.5886C132.959 23.5886 132.067 23.8413 131.257 24.3456C130.447 24.8504 129.815 25.5429 129.362 26.4232C129.253 26.6381 129.162 26.8419 129.086 27.0352C129.01 27.2284 128.951 27.4539 128.908 27.7116C128.865 27.9693 128.832 28.2647 128.811 28.5974C128.789 28.9306 128.779 29.3543 128.779 29.8697V34.1859Z" fill="#29ABE2"/>
<path d="M159.788 36.5373H159.659C158.881 37.6324 158.055 38.411 157.18 38.8725C156.305 39.3341 155.273 39.5651 154.085 39.5651C152.854 39.5651 151.725 39.3446 150.699 38.9048C149.673 38.4649 148.787 37.8529 148.042 37.0688C147.297 36.2851 146.713 35.3455 146.292 34.2503C145.871 33.1552 145.66 31.9634 145.66 30.675C145.66 29.4082 145.871 28.2325 146.292 27.1479C146.713 26.0638 147.297 25.1297 148.042 24.3456C148.787 23.562 149.678 22.95 150.715 22.5096C151.752 22.0697 152.875 21.8493 154.085 21.8493C155.122 21.8493 156.046 22.0214 156.856 22.3647C157.666 22.7084 158.448 23.256 159.205 24.0074V20.7219C159.205 19.4979 159.189 18.4783 159.156 17.6619C159.124 16.8461 159.075 16.2879 159.01 15.987C158.902 15.5149 158.6 15.1817 158.103 14.9884C157.606 14.7952 156.796 14.6986 155.673 14.6986V13.7322L162.316 12.5082V31.0937C162.316 32.5754 162.326 33.7944 162.348 34.7496C162.369 35.7053 162.434 36.3873 162.542 36.795C162.607 37.0526 162.688 37.2676 162.785 37.4392C162.883 37.6113 163.023 37.7452 163.207 37.8418C163.39 37.9384 163.639 38.0084 163.952 38.0512C164.265 38.0945 164.67 38.1156 165.167 38.1156V39.2108L159.788 39.5651V36.5373ZM159.14 29.4188C159.14 28.3025 159.08 27.4539 158.962 26.8741C158.843 26.2943 158.61 25.79 158.265 25.3602C157.768 24.716 157.136 24.2278 156.37 23.8947C155.603 23.562 154.841 23.3954 154.085 23.3954C152.53 23.3954 151.347 24.0346 150.537 25.3119C149.727 26.5898 149.322 28.3236 149.322 30.5139C149.322 31.6524 149.424 32.6831 149.63 33.6061C149.835 34.5297 150.137 35.3188 150.537 35.9736C150.936 36.6289 151.433 37.1332 152.028 37.4875C152.621 37.8418 153.307 38.019 154.085 38.019C154.474 38.019 154.868 37.9762 155.268 37.8901C155.667 37.8046 156.056 37.6702 156.434 37.4875C156.812 37.3053 157.163 37.0904 157.488 36.8433C157.812 36.5967 158.081 36.3118 158.298 35.9897C158.6 35.5176 158.816 34.9484 158.946 34.2825C159.075 33.6172 159.14 32.7042 159.14 31.5446V29.4188Z" fill="#29ABE2"/>
<path d="M168.764 39.2429H168.051V33.7027H168.861C169.703 36.7305 171.237 38.2444 173.462 38.2444C174.326 38.2444 175.012 38.0351 175.52 37.6163C176.027 37.1976 176.281 36.5589 176.281 35.6998C176.281 35.3777 176.233 35.1039 176.136 34.8784C176.038 34.653 175.855 34.4169 175.585 34.1698C175.314 33.9232 174.937 33.6383 174.451 33.3162C173.965 32.9941 173.321 32.5865 172.523 32.0922C171.788 31.6413 171.15 31.2225 170.611 30.836C170.071 30.4495 169.617 30.0579 169.25 29.6603C168.882 29.2632 168.607 28.839 168.424 28.388C168.24 27.9371 168.148 27.4111 168.148 26.8097C168.148 26.0799 168.272 25.4085 168.521 24.7965C168.769 24.1845 169.109 23.6641 169.541 23.2343C169.973 22.805 170.481 22.4668 171.064 22.2197C171.648 21.9731 172.284 21.8493 172.976 21.8493C173.559 21.8493 174.164 21.9409 174.791 22.1231C175.417 22.3058 175.968 22.5473 176.443 22.8478L177.091 22.1714H177.707V26.8097H176.865C176.389 25.5001 175.871 24.566 175.309 24.0074C174.747 23.4492 174.056 23.1699 173.235 23.1699C172.501 23.1699 171.912 23.3632 171.469 23.7497C171.026 24.1362 170.805 24.6732 170.805 25.3602C170.805 25.7256 170.864 26.0422 170.983 26.3104C171.102 26.5792 171.291 26.8419 171.55 27.0996C171.81 27.3573 172.139 27.6205 172.539 27.8887C172.938 28.1575 173.419 28.4635 173.981 28.8067C174.909 29.3865 175.703 29.9019 176.362 30.3528C177.021 30.8038 177.556 31.2497 177.966 31.6896C178.376 32.13 178.679 32.5865 178.874 33.0585C179.068 33.5311 179.165 34.0681 179.165 34.6691C179.165 36.194 178.668 37.3908 177.675 38.2605C176.681 39.1302 175.374 39.5651 173.754 39.5651C172.069 39.5651 170.621 39.0819 169.412 38.1156L168.764 39.2429Z" fill="#29ABE2"/>
<path d="M191.219 21.8493C192.45 21.8493 193.617 22.0697 194.719 22.5096C195.82 22.95 196.787 23.5564 197.619 24.3295C198.45 25.1025 199.109 26.0205 199.595 27.0835C200.081 28.1464 200.324 29.3115 200.324 30.5783C200.324 31.8884 200.081 33.0907 199.595 34.1859C199.109 35.2811 198.45 36.2262 197.619 37.0204C196.787 37.8151 195.82 38.4377 194.719 38.8886C193.617 39.3396 192.45 39.5651 191.219 39.5651C190.009 39.5651 188.859 39.3446 187.768 38.9047C186.677 38.4649 185.721 37.8473 184.9 37.0526C184.079 36.2585 183.431 35.3082 182.956 34.202C182.481 33.0963 182.243 31.8884 182.243 30.5783C182.243 29.3115 182.481 28.1414 182.956 27.0674C183.431 25.9939 184.079 25.0703 184.9 24.2973C185.721 23.5242 186.677 22.9233 187.768 22.4935C188.859 22.0642 190.009 21.8493 191.219 21.8493ZM191.219 23.3954C190.42 23.3954 189.69 23.5675 189.032 23.9107C188.372 24.2545 187.811 24.7432 187.347 25.3763C186.882 26.01 186.526 26.7725 186.277 27.6633C186.029 28.5546 185.905 29.537 185.905 30.6105C185.905 31.7273 186.029 32.7364 186.277 33.6383C186.526 34.5402 186.882 35.3082 187.347 35.9414C187.811 36.575 188.368 37.0637 189.016 37.4069C189.664 37.7507 190.398 37.9223 191.219 37.9223C192.04 37.9223 192.785 37.7507 193.455 37.4069C194.124 37.0637 194.697 36.5695 195.172 35.9253C195.647 35.2811 196.015 34.508 196.274 33.6061C196.533 32.7042 196.663 31.7057 196.663 30.6105C196.663 29.537 196.533 28.5601 196.274 27.6794C196.015 26.7991 195.647 26.0422 195.172 25.4085C194.697 24.7754 194.124 24.2812 193.455 23.9269C192.785 23.5725 192.04 23.3954 191.219 23.3954Z" fill="#29ABE2"/>
<path d="M209.04 34.0893C209.04 34.9912 209.062 35.6998 209.105 36.2152C209.148 36.7305 209.262 37.1226 209.446 37.3908C209.629 37.6596 209.894 37.8368 210.239 37.9223C210.585 38.0084 211.071 38.0728 211.698 38.1156V39.2429H203.078V38.1156C203.705 38.0728 204.201 38.0084 204.569 37.9223C204.936 37.8368 205.217 37.6646 205.411 37.4069C205.606 37.1493 205.73 36.7788 205.784 36.2957C205.838 35.8125 205.865 35.1633 205.865 34.347V30.224C205.865 29 205.849 27.9804 205.816 27.164C205.784 26.3482 205.724 25.79 205.638 25.4891C205.573 25.2102 205.497 24.9898 205.411 24.8287C205.325 24.6677 205.184 24.5389 204.99 24.4422C204.796 24.3456 204.541 24.2812 204.229 24.249C203.915 24.2167 203.51 24.2006 203.013 24.2006V23.0733L208.295 21.8493L208.716 25.0703H208.878C209.851 23.9752 210.871 23.1649 211.941 22.6384C213.01 22.1125 214.193 21.8493 215.489 21.8493C216.85 21.8493 217.994 22.1231 218.923 22.6706C219.852 23.2182 220.5 24.0074 220.868 25.0381H220.997C221.796 24.029 222.768 23.2454 223.914 22.6867C225.058 22.1286 226.279 21.8493 227.575 21.8493C228.59 21.8493 229.514 22.0159 230.346 22.3485C231.177 22.6817 231.809 23.1377 232.241 23.7175C232.63 24.2117 232.905 24.861 233.067 25.6662C233.23 26.4715 233.311 27.5722 233.311 28.9678V34.0893C233.311 34.97 233.337 35.6676 233.392 36.183C233.445 36.6983 233.559 37.0959 233.732 37.3747C233.904 37.6541 234.169 37.8368 234.526 37.9223C234.882 38.0084 235.373 38.0728 236 38.1156V39.2429H227.381V38.1156C227.985 38.0944 228.471 38.0351 228.839 37.9384C229.206 37.8418 229.487 37.6596 229.681 37.3908C229.876 37.1226 230 36.7522 230.054 36.2796C230.108 35.8075 230.135 35.1633 230.135 34.347V30.2884C230.135 29.0644 230.07 28.0287 229.941 27.1801C229.811 26.3321 229.595 25.6451 229.293 25.1186C228.99 24.5927 228.596 24.2117 228.11 23.9752C227.624 23.7391 227.035 23.6209 226.344 23.6209C225.393 23.6209 224.502 23.8841 223.671 24.41C222.839 24.9365 222.185 25.6395 221.71 26.5198C221.602 26.7347 221.51 26.9441 221.435 27.1479C221.359 27.3522 221.3 27.5777 221.257 27.8243C221.213 28.0714 221.186 28.3669 221.175 28.7101C221.164 29.0539 221.159 29.4832 221.159 29.9985V34.0893C221.159 34.97 221.181 35.6676 221.224 36.183C221.267 36.6983 221.381 37.0959 221.564 37.3747C221.748 37.6541 222.023 37.8368 222.391 37.9223C222.758 38.0084 223.254 38.0728 223.881 38.1156V39.2429H215.262V38.1156C215.866 38.0728 216.352 38.0084 216.72 37.9223C217.087 37.8368 217.363 37.6646 217.546 37.4069C217.73 37.1493 217.849 36.7788 217.903 36.2957C217.956 35.8125 217.984 35.1633 217.984 34.347V30.2884C217.984 29.0433 217.919 27.9965 217.789 27.1479C217.66 26.2999 217.449 25.6129 217.157 25.0864C216.866 24.5605 216.482 24.1845 216.007 23.9591C215.532 23.7336 214.948 23.6209 214.257 23.6209C213.285 23.6209 212.372 23.8841 211.519 24.41C210.666 24.9365 210.023 25.6395 209.591 26.5198C209.483 26.7347 209.391 26.9441 209.316 27.1479C209.24 27.3522 209.181 27.5777 209.138 27.8243C209.094 28.0714 209.067 28.3669 209.057 28.7101C209.046 29.0539 209.04 29.4832 209.04 29.9985V34.0893Z" fill="#29ABE2"/>
<path d="M84.4253 46.1751V54.8589H83.2977V47.1157H79.2409V54.8589H78.1133V46.1751H84.4253Z" fill="#29ABE2"/>
<path d="M96.92 54.6271C96.6219 54.7816 95.9608 54.9878 95.1184 54.9878C93.2261 54.9878 91.9948 53.7123 91.9948 51.8055C91.9948 49.8858 93.3168 48.4943 95.3647 48.4943C96.0387 48.4943 96.6349 48.6619 96.9459 48.8164L96.6867 49.6926C96.4145 49.538 95.9868 49.3962 95.3647 49.3962C93.926 49.3962 93.1483 50.4527 93.1483 51.754C93.1483 53.197 94.0815 54.086 95.3258 54.086C95.9739 54.086 96.4016 53.9185 96.7256 53.7768L96.92 54.6271Z" fill="#29ABE2"/>
<path d="M105.397 48.623V51.2514C105.397 52.2434 105.384 52.8619 105.332 53.7509L105.371 53.7638C105.747 53.0036 105.967 52.5655 106.382 51.8441L108.339 48.623H109.674V54.8589H108.585V52.2177C108.585 51.1999 108.611 50.6716 108.663 49.6667H108.624C108.222 50.4654 107.95 50.9679 107.587 51.5992C106.991 52.5656 106.304 53.7638 105.63 54.8589H104.321V48.623H105.397Z" fill="#29ABE2"/>
<path d="M118.15 48.623L119.045 49.963C119.278 50.3109 119.472 50.633 119.68 50.9809H119.719C119.926 50.6072 120.134 50.2851 120.341 49.9501L121.222 48.623H122.454L120.315 51.6379L122.518 54.8589H121.222L120.302 53.4546C120.056 53.0938 119.848 52.7459 119.628 52.3723H119.602C119.395 52.7459 119.175 53.0809 118.941 53.4546L118.034 54.8589H116.777L119.006 51.6766L116.88 48.6231H118.15V48.623Z" fill="#29ABE2"/>
<path d="M135.207 51.6895C135.207 53.9958 133.6 55.0007 132.084 55.0007C130.386 55.0007 129.077 53.7638 129.077 51.7925C129.077 49.7053 130.451 48.4814 132.188 48.4814C133.989 48.4814 135.207 49.7826 135.207 51.6895ZM130.23 51.7539C130.23 53.1196 131.021 54.1503 132.136 54.1503C133.224 54.1503 134.041 53.1325 134.041 51.7281C134.041 50.6716 133.51 49.3317 132.162 49.3317C130.814 49.3317 130.23 50.5686 130.23 51.7539Z" fill="#29ABE2"/>
<path d="M147.21 54.6271C146.912 54.7816 146.251 54.9878 145.408 54.9878C143.516 54.9878 142.284 53.7123 142.284 51.8055C142.284 49.8858 143.606 48.4943 145.654 48.4943C146.328 48.4943 146.925 48.6619 147.236 48.8164L146.976 49.6926C146.704 49.538 146.276 49.3962 145.654 49.3962C144.216 49.3962 143.438 50.4527 143.438 51.754C143.438 53.197 144.371 54.086 145.615 54.086C146.264 54.086 146.691 53.9185 147.015 53.7768L147.21 54.6271Z" fill="#29ABE2"/>
<path d="M160.236 51.6895C160.236 53.9958 158.629 55.0007 157.112 55.0007C155.414 55.0007 154.105 53.7638 154.105 51.7925C154.105 49.7053 155.479 48.4814 157.216 48.4814C159.017 48.4814 160.236 49.7826 160.236 51.6895ZM155.259 51.7539C155.259 53.1196 156.049 54.1503 157.164 54.1503C158.253 54.1503 159.069 53.1325 159.069 51.7281C159.069 50.6716 158.538 49.3317 157.19 49.3317C155.842 49.3317 155.259 50.5686 155.259 51.7539Z" fill="#29ABE2"/>
<path d="M167.831 48.623H169.231L170.372 51.7668C170.527 52.2306 170.799 52.9907 170.942 53.4804H170.968C171.11 53.0166 171.46 52.0245 171.707 51.3416L172.718 48.6231H174.13L174.571 54.859H173.482L173.34 51.8828C173.301 51.2128 173.249 50.414 173.223 49.6539H173.184C173.016 50.2208 172.847 50.7232 172.497 51.6766L171.292 54.8204H170.462L169.348 51.741C169.153 51.1484 168.881 50.2465 168.725 49.6667H168.674C168.648 50.4011 168.609 51.2257 168.57 51.9086L168.414 54.859H167.365L167.831 48.623Z" fill="#29ABE2"/>
<path d="M185.614 54.8589L185.523 54.073H185.484C185.134 54.5627 184.46 55.0007 183.566 55.0007C182.296 55.0007 181.648 54.1117 181.648 53.2098C181.648 51.7024 182.996 50.8778 185.419 50.8907V50.7618C185.419 50.2465 185.277 49.3188 183.994 49.3188C183.41 49.3188 182.801 49.4992 182.361 49.7826L182.101 49.0353C182.62 48.7004 183.372 48.4813 184.162 48.4813C186.08 48.4813 186.547 49.7826 186.547 51.0323V53.3644C186.547 53.9054 186.573 54.4338 186.651 54.8589H185.614V54.8589ZM185.445 51.6766C184.201 51.6509 182.788 51.8699 182.788 53.081C182.788 53.8153 183.281 54.1633 183.864 54.1633C184.681 54.1633 185.199 53.6479 185.381 53.1196C185.42 53.0037 185.445 52.8748 185.445 52.7589V51.6766Z" fill="#29ABE2"/>
<path d="M198.627 48.623V49.5249H196.67V54.8589H195.542V49.5249H193.585V48.623H198.627Z" fill="#29ABE2"/>
<path d="M206.767 48.623V51.2514C206.767 52.2434 206.754 52.8619 206.702 53.7509L206.741 53.7638C207.117 53.0036 207.337 52.5655 207.752 51.8441L209.709 48.623H211.044V54.8589H209.955V52.2177C209.955 51.1999 209.981 50.6716 210.033 49.6667H209.994C209.593 50.4654 209.32 50.9679 208.957 51.5992C208.361 52.5656 207.674 53.7638 207 54.8589H205.691V48.623H206.767Z" fill="#29ABE2"/>
<path d="M220.117 48.623V51.3287H220.389L222.748 48.623H224.135L221.4 51.4447C222.411 51.5478 223.02 52.2177 223.513 53.3386C223.681 53.7508 223.902 54.3565 224.187 54.8589H222.994C222.826 54.5884 222.605 54.0988 222.411 53.5834C221.983 52.5784 221.4 52.1146 220.337 52.1146H220.117V54.8589H218.989V48.623H220.117Z" fill="#29ABE2"/>
<path d="M234.893 54.8589L234.802 54.073H234.763C234.413 54.5627 233.739 55.0007 232.845 55.0007C231.574 55.0007 230.926 54.1117 230.926 53.2098C230.926 51.7024 232.274 50.8778 234.698 50.8907V50.7618C234.698 50.2465 234.556 49.3188 233.272 49.3188C232.689 49.3188 232.08 49.4992 231.639 49.7826L231.38 49.0353C231.899 48.7004 232.65 48.4813 233.441 48.4813C235.359 48.4813 235.826 49.7826 235.826 51.0323V53.3644C235.826 53.9054 235.852 54.4338 235.929 54.8589H234.893V54.8589ZM234.724 51.6766C233.48 51.6509 232.067 51.8699 232.067 53.081C232.067 53.8153 232.56 54.1633 233.143 54.1633C233.959 54.1633 234.478 53.6479 234.659 53.1196C234.698 53.0037 234.724 52.8748 234.724 52.7589V51.6766Z" fill="#29ABE2"/>
</svg>
