<svg width="11" height="9" viewBox="0 0 11 9" fill="none" xmlns="http://www.w3.org/2000/svg">
<path d="M5.50071 0C2.46322 0 0.00142569 1.87031 0.00142569 4.17857C0.00142569 5.13482 0.428909 6.01071 1.1378 6.71585C0.817726 7.50737 0.151797 8.17835 0.141056 8.18638C-0.000722465 8.32701 -0.0393893 8.53192 0.0422407 8.7087C0.123871 8.88549 0.310761 9 0.516984 9C1.8381 9 2.87996 8.48371 3.50507 8.06987C4.12589 8.25268 4.79612 8.35714 5.50071 8.35714C8.53821 8.35714 11 6.48683 11 4.17857C11 1.87031 8.53821 0 5.50071 0ZM5.50071 7.39286C4.92715 7.39286 4.36004 7.31049 3.81656 7.14978L3.32892 7.00513L2.91003 7.28237C2.60285 7.48527 2.18181 7.71228 1.67484 7.86496C1.83166 7.62187 1.98418 7.34866 2.10233 7.05737L2.33003 6.49286L1.88751 6.05491C1.49869 5.66719 1.03254 5.02634 1.03254 4.17857C1.03254 2.4067 3.03677 0.964286 5.50071 0.964286C7.96465 0.964286 9.96888 2.4067 9.96888 4.17857C9.96888 5.95045 7.96465 7.39286 5.50071 7.39286Z" fill="#A9A9A9"/>
</svg>
