<svg width="11" height="12" viewBox="0 0 11 12" fill="none" xmlns="http://www.w3.org/2000/svg">
<path d="M10.6854 6.7193C10.8863 6.37125 11 6 11 5.55117C11 4.51957 10.1471 3.54539 9.03329 3.54539H8.19729C8.31004 3.24516 8.4001 2.88609 8.4001 2.45461C8.4001 0.7485 7.53638 0 6.21683 0C4.80501 0 4.88554 2.22499 4.57233 2.54531C4.05105 3.07845 3.43532 4.10266 2.99658 4.5H0.733333C0.328327 4.5 0 4.83579 0 5.25V10.875C0 11.2892 0.328327 11.625 0.733333 11.625H2.2C2.5413 11.625 2.8281 11.3865 2.90991 11.0637C3.92991 11.0871 4.63004 11.9998 6.98454 11.9998C7.15 11.9998 7.33333 12 7.49375 12C9.26101 12 10.0601 11.076 10.082 9.7657C10.3872 9.33387 10.5471 8.75503 10.4793 8.19563C10.7052 7.76316 10.7925 7.25009 10.6854 6.7193ZM9.27025 7.98094C9.55808 8.47617 9.29912 9.13898 8.95079 9.33023C9.12725 10.4735 8.54727 10.8748 7.73346 10.8748H6.86675C5.22502 10.8748 4.16192 9.98836 2.93333 9.98836V5.625H3.18358C3.8335 5.625 4.74146 3.96352 5.35013 3.34078C6.00004 2.67609 5.78348 1.5682 6.21683 1.125C7.3001 1.125 7.3001 1.89797 7.3001 2.45461C7.3001 3.37266 6.65019 3.78398 6.65019 4.67039H9.03329C9.51706 4.67039 9.89794 5.11359 9.9 5.5568C9.90206 5.99977 9.60621 6.44297 9.38965 6.44297C9.69877 6.7841 9.76481 7.50319 9.27025 7.98094ZM2.01667 10.125C2.01667 10.4357 1.77043 10.6875 1.46667 10.6875C1.16291 10.6875 0.916667 10.4357 0.916667 10.125C0.916667 9.81434 1.16291 9.5625 1.46667 9.5625C1.77043 9.5625 2.01667 9.81434 2.01667 10.125Z" fill="#A9A9A9"/>
</svg>
