<svg width="12" height="8" viewBox="0 0 12 8" fill="none" xmlns="http://www.w3.org/2000/svg">
<path d="M11.8615 3.47024C10.6869 1.3902 8.49604 0 6 0C3.50292 0 1.31259 1.39117 0.138468 3.47024C0.0478116 3.63076 0 3.81369 0 4.00001C0 4.18633 0.0478116 4.36926 0.138468 4.52978C1.31315 6.6098 3.50396 8 6 8C8.49708 8 10.6874 6.60883 11.8615 4.52976C11.9522 4.36924 12 4.18632 12 4C12 3.81368 11.9522 3.63076 11.8615 3.47024ZM6 6.95652C3.86342 6.95652 1.99811 5.76737 1.00001 4C1.91994 2.37102 3.57661 1.23326 5.50338 1.06507C5.70746 1.2843 5.83333 1.58326 5.83333 1.91304C5.83333 2.58539 5.311 3.13043 4.66667 3.13043C4.02234 3.13043 3.5 2.58539 3.5 1.91304L3.50002 1.91213C3.28738 2.32702 3.16667 2.80096 3.16667 3.30435C3.16667 4.9372 4.43519 6.26087 6 6.26087C7.56481 6.26087 8.83333 4.9372 8.83333 3.30435C8.83333 2.62976 8.61666 2.00807 8.25218 1.51054C9.41049 2.01387 10.3752 2.89361 11 4C10.0019 5.76737 8.13658 6.95652 6 6.95652Z" fill="#A9A9A9"/>
</svg>
